#format: frame checksums
#version: 2
#hash: MD5
#tb 0: 1001/30000
#media_type 0: video
#codec_id 0: rawvideo
#dimensions 0: 224x208
#sar 0: 1/1
#stream#, dts,        pts, duration,     size, hash
0,          0,          0,        1,    69888, 85f08afadfd1204d4131b9ee9c8cc10b
0,          1,          1,        1,    69888, f893de5432a082b3dffcf7499827f548
0,          2,          2,        1,    69888, cb81e0d7b657bc5a4a9cf8ad75a76a77
0,          3,          3,        1,    69888, 8a40842123965731c15fc23fb6366d1d
0,          4,          4,        1,    69888, 09c6d92af14a3fcfb12705cd5da57f2a
0,          5,          5,        1,    69888, 6bede4dc8770df534b599021b0425309
0,          6,          6,        1,    69888, 334b0b0448e9e4e6a0cddcd2e3a0af3f
0,          7,          7,        1,    69888, 09f491f0f3870ef96cff0384cd7183d1
0,          8,          8,        1,    69888, c9e5f81186ac947a77b051c8f0e76eac
0,          9,          9,        1,    69888, 917565c3327bff78b53a78ea739472ff
